<svg width="46" height="46" viewBox="0 0 46 46" fill="none" xmlns="http://www.w3.org/2000/svg">
<path fill-rule="evenodd" clip-rule="evenodd" d="M23 0.0833282C10.3437 0.0833282 0.083313 10.3437 0.083313 23C0.083313 35.6562 10.3437 45.9167 23 45.9167C35.6562 45.9167 45.9166 35.6562 45.9166 23C45.9166 10.3437 35.6562 0.0833282 23 0.0833282ZM30.7229 18.2229C31.1024 17.83 31.3124 17.3037 31.3076 16.7575C31.3029 16.2112 31.0838 15.6887 30.6975 15.3025C30.3113 14.9162 29.7887 14.6971 29.2425 14.6923C28.6962 14.6876 28.17 14.8976 27.7771 15.2771L23 20.0542L18.2229 15.2771C18.0307 15.0781 17.8008 14.9194 17.5467 14.8102C17.2925 14.701 17.0191 14.6435 16.7425 14.6411C16.4659 14.6387 16.1915 14.6914 15.9355 14.7962C15.6795 14.901 15.4468 15.0556 15.2512 15.2513C15.0556 15.4469 14.9009 15.6795 14.7962 15.9355C14.6914 16.1915 14.6387 16.4659 14.6411 16.7425C14.6435 17.0191 14.701 17.2925 14.8102 17.5467C14.9194 17.8008 15.0781 18.0307 15.2771 18.2229L20.0541 23L15.2771 27.7771C15.0781 27.9693 14.9194 28.1991 14.8102 28.4533C14.701 28.7075 14.6435 28.9809 14.6411 29.2575C14.6387 29.5341 14.6914 29.8084 14.7962 30.0645C14.9009 30.3205 15.0556 30.5531 15.2512 30.7487C15.4468 30.9443 15.6795 31.099 15.9355 31.2038C16.1915 31.3085 16.4659 31.3613 16.7425 31.3589C17.0191 31.3564 17.2925 31.299 17.5467 31.1898C17.8008 31.0806 18.0307 30.9219 18.2229 30.7229L23 25.9458L27.7771 30.7229C28.17 31.1024 28.6962 31.3124 29.2425 31.3076C29.7887 31.3029 30.3113 31.0838 30.6975 30.6975C31.0838 30.3113 31.3029 29.7887 31.3076 29.2425C31.3124 28.6963 31.1024 28.17 30.7229 27.7771L25.9458 23L30.7229 18.2229Z" fill="#FF3838"/>
</svg>
