<svg width="45" height="45" viewBox="0 0 45 45" fill="none" xmlns="http://www.w3.org/2000/svg">
<path d="M44.6452 40.2L25.4648 1.8C24.266 -0.6 20.9694 -0.6 19.7706 1.8L0.290506 40.2C-0.90827 42.3 0.889893 45 3.28744 45H41.6483C44.0458 45 45.5443 42.3 44.6452 40.2ZM22.4679 39C20.0703 39 17.9724 36.9 17.9724 34.5C17.9724 32.1 19.7706 30 22.4679 30C25.1651 30 26.9633 32.1 26.9633 34.5C26.9633 37.2 24.8654 39 22.4679 39ZM25.4648 27H19.4709L17.9724 16.5C17.9724 15.6 18.5718 15 19.4709 15H25.4648C26.3639 15 26.9633 15.6 26.9633 16.5L25.4648 27Z" fill="#FFC554"/>
</svg>
